<svg width="26" height="26" viewBox="0 0 26 26" fill="none" xmlns="http://www.w3.org/2000/svg">
<path d="M20.2222 0H5.77778C2.587 0 0 2.587 0 5.77778V20.2222C0 23.413 2.587 26 5.77778 26H13.897V15.9452H10.5127V12.0091H13.897V9.113C13.897 5.75611 15.9496 3.926 18.9453 3.926C19.955 3.92311 20.9632 3.97511 21.9671 4.07767V7.58767H19.9044C18.2722 7.58767 17.9544 8.359 17.9544 9.49722V12.0033H21.8544L21.3474 15.9394H17.9313V26H20.2222C23.413 26 26 23.413 26 20.2222V5.77778C26 2.587 23.413 0 20.2222 0Z" fill="black"/>
</svg>
