<svg width="34" height="34" viewBox="0 0 34 34" fill="none" xmlns="http://www.w3.org/2000/svg">
<path fill-rule="evenodd" clip-rule="evenodd" d="M5.8284 8.33333C5.28139 7.43896 5 6.33809 5 5C5 2.36181 6.98392 0 10 0C13.02 0 15.4554 2.02271 16.6667 5.18971C17.8779 2.02271 20.3133 0 23.3333 0C26.3494 0 28.3333 2.36181 28.3333 5C28.3333 6.33809 28.0519 7.43896 27.5049 8.33333H30C31.841 8.33333 33.3333 9.82572 33.3333 11.6667V15C33.3333 16.841 31.841 18.3333 30 18.3333V30C30 31.841 28.5076 33.3333 26.6667 33.3333H6.66667C4.82572 33.3333 3.33333 31.841 3.33333 30V18.3333C1.49238 18.3333 0 16.841 0 15V11.6667C0 9.82572 1.49238 8.33333 3.33333 8.33333H5.8284ZM15 11.6667H3.33333V15H15V11.6667ZM30 15H18.3333V11.6667H30V15ZM15 30V18.3333H6.66667V30H15ZM26.6667 30H18.3333V18.3333H26.6667V30ZM10 3.33333C8.96608 3.33333 8.33333 4.0866 8.33333 5C8.33333 7.08872 10.0283 8.08187 14.049 8.29081C13.6022 5.186 11.937 3.33333 10 3.33333ZM19.1667 8.29081C19.6135 5.186 21.2787 3.33333 23.2157 3.33333C24.2496 3.33333 24.8824 4.0866 24.8824 5C24.8824 7.08872 23.1874 8.08187 19.1667 8.29081Z" fill="#F29100"/>
</svg>
