<svg width="26" height="26" viewBox="0 0 26 26" fill="none" xmlns="http://www.w3.org/2000/svg">
<path d="M7.22222 0C3.23411 0 0 3.23411 0 7.22222V18.7778C0 22.7659 3.23411 26 7.22222 26H18.7778C22.7659 26 26 22.7659 26 18.7778V7.22222C26 3.23411 22.7659 0 18.7778 0H7.22222ZM21.6667 2.88889C22.464 2.88889 23.1111 3.536 23.1111 4.33333C23.1111 5.13067 22.464 5.77778 21.6667 5.77778C20.8693 5.77778 20.2222 5.13067 20.2222 4.33333C20.2222 3.536 20.8693 2.88889 21.6667 2.88889ZM13 5.77778C16.9881 5.77778 20.2222 9.01189 20.2222 13C20.2222 16.9881 16.9881 20.2222 13 20.2222C9.01189 20.2222 5.77778 16.9881 5.77778 13C5.77778 9.01189 9.01189 5.77778 13 5.77778ZM13 8.66667C11.8507 8.66667 10.7485 9.12321 9.93587 9.93587C9.12321 10.7485 8.66667 11.8507 8.66667 13C8.66667 14.1493 9.12321 15.2515 9.93587 16.0641C10.7485 16.8768 11.8507 17.3333 13 17.3333C14.1493 17.3333 15.2515 16.8768 16.0641 16.0641C16.8768 15.2515 17.3333 14.1493 17.3333 13C17.3333 11.8507 16.8768 10.7485 16.0641 9.93587C15.2515 9.12321 14.1493 8.66667 13 8.66667Z" fill="black"/>
</svg>
