<svg width="26" height="26" viewBox="0 0 26 26" fill="none" xmlns="http://www.w3.org/2000/svg">
<path fill-rule="evenodd" clip-rule="evenodd" d="M21.2695 0H5.46484C2.66016 0 0 2.19922 0 5V20.8125C0 23.6133 2.66016 26 5.46484 26H21.2734C24.0742 26 26 23.6133 26 20.8125V5C26 2.19922 24.0742 0 21.2695 0ZM20.3125 15.0078C21.7344 16.3281 22.0312 16.9727 22.0781 17.0508C22.668 18.0312 21.4258 18.1055 21.4258 18.1055L19.0508 18.1406C19.0508 18.1406 18.5391 18.2422 17.8672 17.7773C16.9766 17.1719 16.1406 15.5859 15.4844 15.7891C14.8242 16 14.8438 17.4297 14.8438 17.4297C14.8438 17.4297 14.8477 17.6797 14.6992 17.8438C14.5352 18.0156 14.2148 18 14.2148 18H13.1484C13.1484 18 10.8008 18.1953 8.73438 16.043C6.48047 13.6953 4.49219 9.06641 4.49219 9.06641C4.49219 9.06641 4.37891 8.77344 4.5 8.625C4.64062 8.46094 5.02344 8.45312 5.02344 8.45312L7.56641 8.44141C7.56641 8.44141 7.80469 8.48438 7.97656 8.60938C8.11719 8.71094 8.19922 8.90625 8.19922 8.90625C8.19922 8.90625 8.60938 9.94922 9.15234 10.8867C10.2148 12.7227 10.7109 13.125 11.0703 12.9297C11.5977 12.6406 11.4375 10.3359 11.4375 10.3359C11.4375 10.3359 11.4492 9.49609 11.1719 9.12109C10.9609 8.83594 10.5625 8.75 10.3828 8.72656C10.2383 8.70703 10.4766 8.375 10.7812 8.22656C11.2383 8.00391 12.0469 7.98828 13 8C13.7422 8.00781 13.957 8.05469 14.2461 8.125C15.125 8.33594 14.8281 9.15234 14.8281 11.1133C14.8281 11.7422 14.7148 12.625 15.168 12.918C15.3633 13.043 15.8398 12.9375 17.0273 10.9141C17.5938 9.95312 18.0156 8.82812 18.0156 8.82812C18.0156 8.82812 18.1094 8.625 18.2539 8.53906C18.4023 8.45312 18.6016 8.48047 18.6016 8.48047L21.2773 8.46094C21.2773 8.46094 22.0781 8.36719 22.2109 8.73047C22.3477 9.10938 21.9102 10 20.8164 11.457C19.0195 13.8477 18.8203 13.625 20.3125 15.0078Z" fill="black"/>
</svg>
