<svg width="41" height="25" viewBox="0 0 41 25" fill="none" xmlns="http://www.w3.org/2000/svg">
<path d="M40.0541 22.1575C38.4096 19.1975 34.1698 15.6368 32.4252 14.0924C31.9461 13.6706 31.8889 12.9342 32.3251 12.4694C35.6641 8.88017 38.3381 4.76183 39.2533 2.26652C39.6609 1.17258 38.8172 0.00714902 37.6375 0.00714902H34.2055C33.0687 0.00714902 32.4109 0.414693 32.0891 1.05818C29.315 6.74235 26.9412 9.20192 25.2753 10.639C24.3386 11.447 22.8872 10.782 22.8872 9.55226C22.8872 7.1928 22.8872 4.13979 22.8872 1.98052C22.8872 0.929485 22.0292 0.0786471 20.971 0.0786471L14.6934 0.00714902C13.9069 0.00714902 13.4565 0.900885 13.9284 1.53008L14.9651 3.01726C15.3512 3.53205 15.5657 4.15409 15.5657 4.79758L15.5586 11.497C15.5586 12.6625 14.1429 13.2345 13.3064 12.4194C10.475 9.65236 8.00828 4.01109 7.1217 1.31558C6.87145 0.536241 6.13501 0.00714902 5.30562 0.00714902L1.92372 0C0.658189 0 -0.271299 1.20118 0.0718961 2.41666C3.16065 13.2631 9.50976 23.5875 20.8137 24.71C21.922 24.8173 22.8872 23.9236 22.8872 22.8082V19.2904C22.8872 18.2823 23.6809 17.4172 24.6961 17.3885C24.7319 17.3885 24.7676 17.3885 24.8034 17.3885C27.792 17.3885 31.1382 21.7357 32.3108 23.7734C32.6468 24.3597 33.276 24.7172 33.9624 24.7172H38.5097C39.8396 24.7172 40.6905 23.3087 40.0541 22.1575Z" fill="black"/>
</svg>
