<svg viewBox="0 0 156 65" fill="none" xmlns="http://www.w3.org/2000/svg">
<path d="M5.05371 63.3265V58.2947H6.69871C7.24474 58.2947 7.65483 58.4076 7.929 58.6334C8.20547 58.8592 8.3437 59.1932 8.3437 59.6356C8.3437 59.8706 8.27689 60.0791 8.14326 60.2611C8.00964 60.4408 7.82763 60.5802 7.59724 60.6793C7.8691 60.7553 8.08336 60.9004 8.24003 61.1147C8.399 61.3267 8.47848 61.5801 8.47848 61.875C8.47848 62.3266 8.33219 62.6814 8.03959 62.9394C7.74699 63.1974 7.33344 63.3265 6.79893 63.3265H5.05371ZM5.71724 60.973V62.7839H6.81275C7.12148 62.7839 7.36454 62.7044 7.54194 62.5454C7.72165 62.3842 7.8115 62.163 7.8115 61.8819C7.8115 61.276 7.48204 60.973 6.82312 60.973H5.71724ZM5.71724 60.4408H6.71944C7.00974 60.4408 7.24128 60.3682 7.41407 60.2231C7.58917 60.0779 7.67672 59.881 7.67672 59.6321C7.67672 59.3557 7.59608 59.1552 7.43481 59.0308C7.27354 58.9041 7.02817 58.8407 6.69871 58.8407H5.71724V60.4408Z" fill="black"/>
<path d="M13.5108 61.0007H11.3301V62.7839H13.8633V63.3265H10.6666V58.2947H13.8287V58.8407H11.3301V60.4581H13.5108V61.0007Z" fill="black"/>
<path d="M18.9613 58.8407H16.5352V60.3475H17.7863C18.3116 60.3544 18.7217 60.4892 19.0166 60.7518C19.3115 61.0145 19.4589 61.3716 19.4589 61.8232C19.4589 62.277 19.3103 62.6387 19.0131 62.9083C18.7159 63.1779 18.3104 63.3172 17.7966 63.3265H15.8683V58.2947H18.9613V58.8407ZM16.5352 60.8935V62.7839H17.7482C18.0777 62.7839 18.3334 62.6963 18.5155 62.5212C18.6998 62.3461 18.7919 62.1111 18.7919 61.8162C18.7919 61.5329 18.7032 61.3094 18.5258 61.1458C18.3507 60.9822 18.1007 60.8981 17.7759 60.8935H16.5352Z" fill="black"/>
<path d="M22.7909 61.4499H21.1045V60.9281H22.7909V61.4499Z" fill="black"/>
<path d="M28.4211 61.7298C28.3589 62.262 28.1619 62.6733 27.8301 62.9636C27.5007 63.2516 27.0618 63.3956 26.5135 63.3956C25.919 63.3956 25.4421 63.1825 25.0827 62.7562C24.7256 62.33 24.5471 61.7598 24.5471 61.0456V60.5618C24.5471 60.0941 24.63 59.6828 24.7959 59.328C24.9641 58.9732 25.2014 58.7013 25.5078 58.5124C25.8142 58.3212 26.169 58.2256 26.5722 58.2256C27.1067 58.2256 27.5352 58.3753 27.8578 58.6748C28.1803 58.9721 28.3681 59.3845 28.4211 59.9121H27.7541C27.6965 59.5112 27.571 59.2209 27.3774 59.0412C27.1862 58.8615 26.9178 58.7716 26.5722 58.7716C26.1483 58.7716 25.8154 58.9283 25.5735 59.2416C25.3338 59.5549 25.214 60.0008 25.214 60.579V61.0663C25.214 61.6123 25.3281 62.0466 25.5562 62.3692C25.7843 62.6917 26.1034 62.853 26.5135 62.853C26.8821 62.853 27.1643 62.7701 27.3601 62.6042C27.5583 62.436 27.6896 62.1445 27.7541 61.7298H28.4211Z" fill="black"/>
<path d="M33.9061 58.8407H32.2888V63.3265H31.6287V58.8407H30.0148V58.2947H33.9061V58.8407Z" fill="black"/>
<path d="M37.5837 61.2149L38.7414 58.2947H39.5121L37.7323 62.4867C37.6125 62.7539 37.5008 62.944 37.3971 63.0569C37.2934 63.1675 37.1713 63.2527 37.0308 63.3126C36.8926 63.3702 36.7186 63.399 36.509 63.399C36.3269 63.399 36.2106 63.3887 36.1599 63.3679L36.1806 62.8426L36.4951 62.8565C36.737 62.8565 36.9167 62.7401 37.0342 62.5074L37.1206 62.3277L37.252 62.0201L35.5379 58.2947H36.2809L37.5837 61.2149Z" fill="black"/>
<path d="M45.754 64.5602H45.0939V63.3265H41.4825V64.5637H40.819L40.8155 62.7839H41.2268C41.4433 62.5397 41.615 62.2125 41.7417 61.8024C41.8707 61.39 41.9514 60.9384 41.9836 60.4477L42.0942 58.2947H45.1043V62.7839H45.7609L45.754 64.5602ZM41.9836 62.7839H44.4373V58.8407H42.7335L42.661 60.3198C42.631 60.8981 42.5538 61.3912 42.4294 61.799C42.3073 62.2068 42.1587 62.5351 41.9836 62.7839Z" fill="black"/>
<path d="M50.9245 58.2947H51.588V63.3265H50.9245V59.449L48.4467 63.3265H47.7797V58.2947H48.4467V62.1722L50.9245 58.2947Z" fill="black"/>
<path d="M56.6342 63.3265V61.367H55.473L54.4328 63.3265H53.7243L54.8924 61.1838C54.2427 60.9281 53.9179 60.4708 53.9179 59.8118C53.9179 59.3326 54.0745 58.9605 54.3879 58.6956C54.7035 58.4283 55.1412 58.2947 55.7011 58.2947H57.3012V63.3265H56.6342ZM54.5814 59.8118C54.5814 60.1159 54.6758 60.3602 54.8648 60.5445C55.056 60.7288 55.3209 60.8221 55.6596 60.8244H56.6342V58.8407H55.6907C55.3313 58.8407 55.056 58.926 54.8648 59.0965C54.6758 59.267 54.5814 59.5054 54.5814 59.8118Z" fill="black"/>
<path d="M66.5122 63.3265H65.8452V58.8407H63.3639V63.3265H62.7003V58.2947H66.5122V63.3265Z" fill="black"/>
<path d="M72.7955 60.973C72.7955 61.466 72.7126 61.8969 72.5467 62.2655C72.3808 62.6318 72.1458 62.9118 71.8417 63.1053C71.5376 63.2988 71.1828 63.3956 70.7773 63.3956C70.381 63.3956 70.0297 63.2988 69.7232 63.1053C69.4168 62.9094 69.1784 62.6318 69.0079 62.2724C68.8397 61.9107 68.7533 61.4925 68.7487 61.0179V60.6551C68.7487 60.1712 68.8328 59.7439 69.001 59.3729C69.1691 59.002 69.4064 58.7186 69.7129 58.5228C70.0216 58.3247 70.3741 58.2256 70.7704 58.2256C71.1736 58.2256 71.5284 58.3235 71.8348 58.5193C72.1435 58.7129 72.3808 58.9951 72.5467 59.366C72.7126 59.7347 72.7955 60.1643 72.7955 60.6551V60.973ZM72.1354 60.6482C72.1354 60.0514 72.0156 59.5941 71.776 59.2762C71.5364 58.9559 71.2012 58.7958 70.7704 58.7958C70.3511 58.7958 70.0204 58.9559 69.7785 59.2762C69.5389 59.5941 69.4157 60.0365 69.4088 60.6032V60.973C69.4088 61.5513 69.5297 62.0063 69.7716 62.3381C70.0158 62.6675 70.3511 62.8323 70.7773 62.8323C71.2058 62.8323 71.5376 62.6768 71.7726 62.3657C72.0076 62.0524 72.1285 61.6043 72.1354 61.0214V60.6482Z" fill="black"/>
<path d="M78.6883 58.2947V63.3265H78.0248V58.8407H76.2208L76.131 60.8348C76.0964 61.5029 76.0273 62.0052 75.9236 62.3415C75.8223 62.6779 75.6725 62.9256 75.4744 63.0845C75.2762 63.2412 75.0113 63.3218 74.6795 63.3265H74.4618V62.7839L74.6 62.777C74.8143 62.7608 74.979 62.6917 75.0942 62.5696C75.2094 62.4452 75.297 62.2482 75.3569 61.9787C75.4168 61.7091 75.4594 61.2944 75.4847 60.7346L75.5884 58.2947H78.6883Z" fill="black"/>
<path d="M84.9648 63.3265H84.2978V61.0007H81.7612V63.3265H81.0976V58.2947H81.7612V60.4581H84.2978V58.2947H84.9648V63.3265Z" fill="black"/>
<path d="M91.217 60.973C91.217 61.466 91.134 61.8969 90.9682 62.2655C90.8023 62.6318 90.5673 62.9118 90.2632 63.1053C89.9591 63.2988 89.6042 63.3956 89.1988 63.3956C88.8025 63.3956 88.4511 63.2988 88.1447 63.1053C87.8383 62.9094 87.5998 62.6318 87.4294 62.2724C87.2612 61.9107 87.1748 61.4925 87.1702 61.0179V60.6551C87.1702 60.1712 87.2542 59.7439 87.4224 59.3729C87.5906 59.002 87.8279 58.7186 88.1343 58.5228C88.4431 58.3247 88.7956 58.2256 89.1918 58.2256C89.595 58.2256 89.9498 58.3235 90.2563 58.5193C90.565 58.7129 90.8023 58.9951 90.9682 59.366C91.134 59.7347 91.217 60.1643 91.217 60.6551V60.973ZM90.5569 60.6482C90.5569 60.0514 90.4371 59.5941 90.1975 59.2762C89.9579 58.9559 89.6227 58.7958 89.1918 58.7958C88.7725 58.7958 88.4419 58.9559 88.2 59.2762C87.9604 59.5941 87.8371 60.0365 87.8302 60.6032V60.973C87.8302 61.5513 87.9512 62.0063 88.1931 62.3381C88.4373 62.6675 88.7725 62.8323 89.1988 62.8323C89.6273 62.8323 89.9591 62.6768 90.194 62.3657C90.429 62.0524 90.55 61.6043 90.5569 61.0214V60.6482Z" fill="black"/>
<path d="M96.5361 58.8407H94.1101V63.3265H93.4431V58.2947H96.5361V58.8407Z" fill="black"/>
<path d="M102.194 60.973C102.194 61.466 102.111 61.8969 101.945 62.2655C101.779 62.6318 101.544 62.9118 101.24 63.1053C100.936 63.2988 100.581 63.3956 100.176 63.3956C99.7794 63.3956 99.4281 63.2988 99.1217 63.1053C98.8153 62.9094 98.5768 62.6318 98.4063 62.2724C98.2381 61.9107 98.1517 61.4925 98.1471 61.0179V60.6551C98.1471 60.1712 98.2312 59.7439 98.3994 59.3729C98.5676 59.002 98.8049 58.7186 99.1113 58.5228C99.42 58.3247 99.7725 58.2256 100.169 58.2256C100.572 58.2256 100.927 58.3235 101.233 58.5193C101.542 58.7129 101.779 58.9951 101.945 59.366C102.111 59.7347 102.194 60.1643 102.194 60.6551V60.973ZM101.534 60.6482C101.534 60.0514 101.414 59.5941 101.174 59.2762C100.935 58.9559 100.6 58.7958 100.169 58.7958C99.7495 58.7958 99.4189 58.9559 99.177 59.2762C98.9374 59.5941 98.8141 60.0365 98.8072 60.6032V60.973C98.8072 61.5513 98.9282 62.0063 99.1701 62.3381C99.4143 62.6675 99.7495 62.8323 100.176 62.8323C100.604 62.8323 100.936 62.6768 101.171 62.3657C101.406 62.0524 101.527 61.6043 101.534 61.0214V60.6482Z" fill="black"/>
<path d="M107.372 58.2947H108.039V62.7839H110.52V58.2947H111.184V62.7701H111.713L111.65 64.5395H111.052V63.3265H107.372V58.2947Z" fill="black"/>
<path d="M116.904 58.2947H117.567V63.3265H116.904V59.449L114.426 63.3265H113.759V58.2947H114.426V62.1722L116.904 58.2947Z" fill="black"/>
<path d="M121.286 61.0663H120.675V63.3265H120.011V58.2947H120.675V60.5134H121.193L122.952 58.2947H123.778L121.857 60.7346L123.92 63.3265H123.108L121.286 61.0663Z" fill="black"/>
<path d="M129.536 58.2947V63.3265H128.873V58.8407H127.069L126.979 60.8348C126.944 61.5029 126.875 62.0052 126.771 62.3415C126.67 62.6779 126.52 62.9256 126.322 63.0845C126.124 63.2412 125.859 63.3218 125.527 63.3265H125.31V62.7839L125.448 62.777C125.662 62.7608 125.827 62.6917 125.942 62.5696C126.057 62.4452 126.145 62.2482 126.205 61.9787C126.265 61.7091 126.307 61.2944 126.333 60.7346L126.436 58.2947H129.536Z" fill="black"/>
<path d="M134.786 62.0132H132.678L132.205 63.3265H131.52L133.442 58.2947H134.022L135.947 63.3265H135.267L134.786 62.0132ZM132.879 61.4672H134.589L133.732 59.1137L132.879 61.4672Z" fill="black"/>
<path fill-rule="evenodd" clip-rule="evenodd" d="M140.975 9.92579V9.6853H122.461V14.0043L140.975 9.92579ZM122.461 16.0437L140.975 10.4352V16.7257H135.238V48.7985H128.198V16.7257H122.461V16.0437ZM119.658 14.6219V9.6853H103.491V18.1834L119.658 14.6219ZM103.491 21.7905L110.532 19.6577V24.5483H118.25V31.5887H110.532V41.7582H119.658V48.7985H103.491V21.7905ZM96.1847 19.793V9.6853H89.1444V21.344L96.1847 19.793ZM89.1444 26.1367L96.1847 24.0039V39.5157C96.1847 42.4014 95.3156 44.7308 93.5772 46.5039C91.8388 48.277 89.492 49.1636 86.5368 49.1636H82.9905V42.1232H86.5368C87.3712 42.1232 88.0144 41.8885 88.4664 41.4192C88.9184 40.9324 89.1444 40.2979 89.1444 39.5157V26.1367ZM79.3958 23.4916V19.3332C79.3958 16.4302 78.5266 14.1008 76.7882 12.345C75.0499 10.5719 72.7031 9.6853 69.7479 9.6853H60.0999V27.7425L67.4972 26.1129H67.1403V16.7257H69.7479C70.5823 16.7257 71.2255 16.9691 71.6774 17.4558C72.1294 17.9252 72.3554 18.551 72.3554 19.3332V23.5053C72.3554 24.1533 72.2004 24.6999 71.8902 25.1451L79.3958 23.4916ZM60.0999 34.9353L77.9492 29.5281C78.5449 30.2825 79.0097 31.1607 79.3436 32.1624C79.7261 33.2575 79.9173 34.457 79.9173 35.7608V39.1506C79.9173 42.0363 79.0481 44.3657 77.3097 46.1388C75.5714 47.912 73.2246 48.7985 70.2694 48.7985H60.0999V34.9353ZM52.6028 29.3941V24.5483H44.8845V16.7257H54.0109V9.6853H37.8441V32.6454L52.6028 29.3941ZM37.8441 41.6774L44.8845 39.5446V41.7582H54.0109V48.7985H37.8441V41.6774ZM29.5539 34.4717L32.5944 9.6853H25.3975L22.9464 33.5705L19.1394 9.6853H13.455L9.64793 33.5705L7.19684 9.6853H0L3.73809 40.1589L14.5137 37.785L16.3233 28.3032L17.9655 37.0246L29.5539 34.4717ZM19.867 47.1233L28.3159 44.5638L27.7965 48.7985H20.1824L19.867 47.1233ZM67.1403 33.1532V41.7582H70.2694C71.1038 41.7582 71.747 41.5235 72.199 41.0541C72.6509 40.5674 72.8769 39.9329 72.8769 39.1506V35.7608C72.8769 34.9785 72.6509 34.3527 72.199 33.8834C71.747 33.3966 71.1038 33.1532 70.2694 33.1532H67.1403Z" fill="black"/>
<path d="M152.058 5.32168C152.631 5.13058 153.872 5.23213 154.063 5.80458C154.254 6.37702 153.323 7.2036 152.75 7.3947L145.08 9.95515L144.388 7.88213L152.058 5.32168Z" fill="black"/>
<path d="M148.63 14.0691L151.713 7.04936L148.498 8.12272L147.916 14.3076L148.63 14.0691Z" fill="black"/>
<path d="M144.755 2.46036L151.437 6.2203L148.222 7.29365L144.041 2.69888L144.755 2.46036Z" fill="black"/>
<path d="M144.604 11.6112L145.944 8.39922L144.515 8.87627L144.287 11.7173L144.604 11.6112Z" fill="black"/>
<path d="M143.014 6.84342L146.014 8.60664L144.585 9.08369L142.696 6.94944L143.014 6.84342Z" fill="black"/>
</svg>
