<svg viewBox="0 0 102 62" fill="none" xmlns="http://www.w3.org/2000/svg">
<path d="M48.4432 17.9334C48.2991 17.9334 48.1549 17.8975 48.0109 17.8617C47.4343 17.6823 47.002 17.1443 47.002 16.4987V7.89072C47.002 7.10165 47.6506 6.45605 48.4432 6.45605C49.236 6.45605 49.8845 7.10165 49.8845 7.89072V11.7643L53.0192 7.10165C53.4516 6.45605 54.3524 6.27672 55.001 6.70712C55.6496 7.13751 55.8297 8.0342 55.3974 8.67982L49.6322 17.2877C49.38 17.7182 48.9116 17.9334 48.4432 17.9334Z" fill="#6E3CFF"/>
<path d="M54.2083 32.2801C53.7399 32.2801 53.2715 32.0649 53.0192 31.6345L49.8845 26.9718V30.8454C49.8845 31.6345 49.236 32.2801 48.4432 32.2801C47.6506 32.2801 47.002 31.6345 47.002 30.8454V22.2375C47.002 21.5918 47.4343 21.0538 48.0109 20.8745C48.6234 20.6951 49.2719 20.9104 49.6322 21.4484L55.3974 30.0564C55.8297 30.702 55.6496 31.5986 55.001 32.0291C54.7488 32.2084 54.4965 32.2801 54.2083 32.2801Z" fill="#6E3CFF"/>
<path d="M63.5709 32.2799C63.1025 32.2799 62.6341 32.0647 62.3819 31.6343L54.7071 20.157C54.3828 19.6907 54.3828 19.0452 54.7071 18.5788L62.3819 7.10154C62.8142 6.45594 63.715 6.27661 64.3636 6.70701C65.0122 7.13741 65.1924 8.03411 64.7599 8.67965L57.6256 19.3679L64.796 30.0562C65.2283 30.7018 65.0482 31.5985 64.3996 32.0288C64.1114 32.2082 63.8592 32.2799 63.5709 32.2799Z" fill="black"/>
<path d="M40.5126 32.2801C39.7199 32.2801 39.0713 31.6344 39.0713 30.8453V7.89072C39.0713 7.10165 39.7199 6.45605 40.5126 6.45605C41.3053 6.45605 41.9539 7.10165 41.9539 7.89072V30.8453C41.9539 31.6344 41.3053 32.2801 40.5126 32.2801Z" fill="black"/>
<path d="M71.5014 38.736H32.5869V0H71.5014V38.736ZM35.4695 35.8667H68.6189V2.86933H35.4695V35.8667Z" fill="black"/>
<path d="M48.4432 17.9334C48.2991 17.9334 48.1549 17.8975 48.0109 17.8617C47.4343 17.6823 47.002 17.1443 47.002 16.4987V7.89072C47.002 7.10165 47.6506 6.45605 48.4432 6.45605C49.236 6.45605 49.8845 7.10165 49.8845 7.89072V11.7643L53.0192 7.10165C53.4516 6.45605 54.3524 6.27672 55.001 6.70712C55.6496 7.13751 55.8297 8.0342 55.3974 8.67982L49.6322 17.2877C49.38 17.7182 48.9116 17.9334 48.4432 17.9334Z" fill="#F29100"/>
<path d="M54.2083 32.2801C53.7399 32.2801 53.2715 32.0649 53.0192 31.6345L49.8845 26.9718V30.8454C49.8845 31.6345 49.236 32.2801 48.4432 32.2801C47.6506 32.2801 47.002 31.6345 47.002 30.8454V22.2375C47.002 21.5918 47.4343 21.0538 48.0109 20.8745C48.6234 20.6951 49.2719 20.9104 49.6322 21.4484L55.3974 30.0564C55.8297 30.702 55.6496 31.5986 55.001 32.0291C54.7488 32.2084 54.4965 32.2801 54.2083 32.2801Z" fill="#F29100"/>
<path d="M71.5014 38.736H32.5869V0H71.5014V38.736ZM35.4695 35.8667H68.6189V2.86933H35.4695V35.8667Z" fill="black"/>
<path d="M16.6683 49.0759H14.4364V53.2219H13.411V48.2454H16.6683V49.0759ZM18.7879 51.4685V53.2219H17.7625V48.2454H19.7039C20.0776 48.2454 20.4057 48.3137 20.6883 48.4504C20.9731 48.5872 21.1918 48.782 21.3445 49.0349C21.4972 49.2856 21.5735 49.5715 21.5735 49.8928C21.5735 50.3805 21.406 50.7655 21.0711 51.0481C20.7384 51.3284 20.277 51.4685 19.6868 51.4685H18.7879ZM18.7879 50.6379H19.7039C19.975 50.6379 20.1813 50.5741 20.3225 50.4465C20.4661 50.3189 20.5379 50.1366 20.5379 49.8997C20.5379 49.6558 20.4661 49.4587 20.3225 49.3083C20.179 49.158 19.9807 49.0805 19.7278 49.0759H18.7879V50.6379ZM24.6022 50.5969L25.508 48.2454H26.6154L24.8757 52.3503L24.7355 52.6204C24.4781 53.0693 24.0839 53.2937 23.5529 53.2937L23.194 53.28L23.1838 52.4563C23.2385 52.4654 23.3273 52.47 23.4504 52.47C23.5939 52.47 23.709 52.4449 23.7956 52.3948C23.8845 52.3446 23.9585 52.2524 24.0178 52.1179L24.1442 51.7932L22.3977 48.2454H23.5017L24.6022 50.5969ZM31.6676 53.2219H30.6388V49.0759H28.6461V53.2219H27.6207V48.2454H31.6676V53.2219ZM37.0787 53.2219H36.0498V49.0759H34.0572V53.2219H33.0318V48.2454H37.0787V53.2219ZM41.2456 52.1965H39.4477L39.1059 53.2219H38.0156L39.8681 48.2454H40.8183L42.6811 53.2219H41.5908L41.2456 52.1965ZM39.7246 51.366H40.9687L40.3432 49.5032L39.7246 51.366ZM47.4227 51.1882H46.8313V53.2219H45.806V48.2454H46.8313V50.238H47.2996L48.5164 48.2454H49.7674L48.2327 50.6003L49.928 53.2219H48.7044L47.4227 51.1882ZM54.758 50.8464C54.758 51.3363 54.6714 51.7659 54.4983 52.135C54.3251 52.5042 54.0767 52.789 53.7531 52.9895C53.4319 53.19 53.0627 53.2903 52.6457 53.2903C52.2333 53.2903 51.8653 53.1912 51.5417 52.9929C51.2181 52.7947 50.9675 52.5121 50.7898 52.1453C50.612 51.7761 50.522 51.3523 50.5197 50.8738V50.6277C50.5197 50.1378 50.6075 49.7071 50.7829 49.3357C50.9607 48.962 51.2102 48.676 51.5315 48.4778C51.855 48.2773 52.2242 48.177 52.6389 48.177C53.0536 48.177 53.4216 48.2773 53.7429 48.4778C54.0665 48.676 54.316 48.962 54.4914 49.3357C54.6692 49.7071 54.758 50.1366 54.758 50.6243V50.8464ZM53.719 50.6208C53.719 50.099 53.6255 49.7026 53.4387 49.4314C53.2518 49.1602 52.9852 49.0247 52.6389 49.0247C52.2948 49.0247 52.0293 49.1591 51.8425 49.428C51.6556 49.6946 51.5611 50.0865 51.5588 50.6038V50.8464C51.5588 51.3546 51.6522 51.7488 51.8391 52.0291C52.0259 52.3093 52.2948 52.4495 52.6457 52.4495C52.9898 52.4495 53.2541 52.315 53.4387 52.0461C53.6233 51.775 53.7167 51.3808 53.719 50.8635V50.6208ZM57.298 48.2454L58.5763 51.8547L59.8478 48.2454H61.1945V53.2219H60.1657V51.8616L60.2682 49.5134L58.9249 53.2219H58.2208L56.881 49.5168L56.9835 51.8616V53.2219H55.9581V48.2454H57.298ZM66.5987 53.2219H65.5699V49.0759H63.5772V53.2219H62.5518V48.2454H66.5987V53.2219ZM70.7656 52.1965H68.9678L68.626 53.2219H67.5356L69.3882 48.2454H70.3384L72.2012 53.2219H71.1108L70.7656 52.1965ZM69.2446 51.366H70.4888L69.8633 49.5032L69.2446 51.366ZM77.1713 53.2219H76.1459V51.0891H74.1464V53.2219H73.121V48.2454H74.1464V50.262H76.1459V48.2454H77.1713V53.2219ZM81.5091 48.2454H82.5379V53.2219H81.5091V49.9167L79.5164 53.2219H78.491V48.2454H79.5164V51.5574L81.5091 48.2454ZM86.8655 48.2454H87.8943V53.2219H86.8655V49.9167L84.8728 53.2219H83.8474V48.2454H84.8728V51.5574L86.8655 48.2454ZM87.0637 46.9363C87.0637 47.2393 86.9543 47.4843 86.7356 47.6711C86.5191 47.858 86.2343 47.9514 85.8811 47.9514C85.5279 47.9514 85.2419 47.8591 85.0232 47.6746C84.8067 47.49 84.6985 47.2439 84.6985 46.9363H85.3992C85.3992 47.0798 85.4413 47.1915 85.5256 47.2712C85.6122 47.3487 85.7307 47.3875 85.8811 47.3875C86.0292 47.3875 86.1454 47.3487 86.2297 47.2712C86.314 47.1915 86.3562 47.0798 86.3562 46.9363H87.0637Z" fill="black"/>
</svg>
